<?xml version="1.0"?>
<svg version="1.1" xmlns="http://www.w3.org/2000/svg" width="275" height="55" style=""><path fill="#645cff" d="M35.804,41.92l0,2.38l-8.904,0l0-2.38l2.1-0.756l-0.672-2.044l-6.216,0l-0.7,2.016l2.184,0.784l0,2.38l-8.456,0l0-2.38l2.044-0.784l6.16-16.492l4.48-0.084l6.02,16.576z M27.404,36.124l-2.1-6.636l-2.212,6.636l4.312,0z M39.01028,44.3l0-2.38l2.1-0.84l0-13.16l-2.1-0.84l0-2.38l8.54-0.14l0,2.52l-2.1,0.84l0,13.16l2.1,0.84l0,2.38l-8.54,0z M60.40284,44.3l0-2.38l2.1-0.84l0-13.16l-2.1-0.84l0-2.38l6.44-0.14l7.84,0l0,5.32l-2.604,0l-0.7-1.96l-4.536,0l0,4.9l5.796,0l0,3.08l-5.796,0l0,5.18l2.576,0.84l0,2.38l-9.016,0z M85.86912,28.9c4.536,0,7.056,2.744,7.056,7.56c0,5.04-2.94,8.12-7.476,8.12c-4.564,0-7.14-2.38-7.14-7.7c0-5.04,2.996-7.98,7.56-7.98z M85.72912,32.26c-2.044,0-3.08,1.12-3.08,4.48c0,3.08,0.896,4.48,2.94,4.48c2.016,0,2.996-1.26,2.996-4.62c0-2.856-0.84-4.34-2.856-4.34z M104.3914,28.9c4.536,0,7.056,2.744,7.056,7.56c0,5.04-2.94,8.12-7.476,8.12c-4.564,0-7.14-2.38-7.14-7.7c0-5.04,2.996-7.98,7.56-7.98z M104.2514,32.26c-2.044,0-3.08,1.12-3.08,4.48c0,3.08,0.896,4.48,2.94,4.48c2.016,0,2.996-1.26,2.996-4.62c0-2.856-0.84-4.34-2.856-4.34z M125.71368,44.3l-0.252-1.484c-0.392,0.392-1.82,1.764-4.228,1.764c-3.92,0-5.74-2.856-5.74-7.476c0-5.264,2.52-8.204,7.644-8.204c0.672,0,1.484,0.14,2.1,0.28l0-3.556l-2.24-0.56l0-2.24l6.44-0.224l0,18.704l2.24,0.56l0,2.24z M125.23768,39.624l0-6.944c-0.532-0.252-1.372-0.42-2.184-0.42c-2.38,0-3.22,1.82-3.22,4.62c0,2.828,0.784,4.34,2.688,4.34c1.792,0,2.716-1.596,2.716-1.596z"/><path fill="#333538" d="M140.16396,44.3l0-2.38l2.1-0.84l0-13.16l-2.1-0.84l0-2.38l6.44-0.14l2.128,0c4.592,0,7.28,1.904,7.28,5.712c0,2.632-1.26,4.34-3.164,5.292c0.308,0.364,0.728,0.896,1.176,1.82l1.876,3.836l1.904,0.7l0,2.38l-5.18,0l-2.352-5.18c-0.952-2.128-1.204-2.576-2.688-2.576l-0.98,0l0,4.536l2.016,0.84l0,2.38l-8.456,0z M146.60396,33.604l1.596,0c2.212,0,3.5-1.064,3.5-2.94c0-1.596-1.064-2.744-2.8-2.744l-2.296,0l0,5.684z M174.67424,37.664l-9.296,0c0.168,2.24,1.456,3.556,3.388,3.556c2.324,0,4.704-1.316,4.704-1.316l1.204,2.324s-2.8,2.352-6.384,2.352c-4.816,0-7.28-2.8-7.28-7.56c0-4.9,2.772-8.12,7.476-8.12c4.172,0,6.356,2.576,6.356,6.58c0,1.064-0.168,2.1-0.168,2.184z M165.43424,35.06l5.068,0c0-1.596-0.672-2.8-2.296-2.8c-1.568,0-2.548,1.148-2.772,2.8z M190.64852,39.736l1.4,2.464c-0.7,0.616-2.884,2.38-6.02,2.38c-4.62,0-7.28-2.856-7.28-7.616c0-4.984,2.8-8.064,7.7-8.064c2.408,0,4.9,0.98,4.9,0.98l-0.14,4.592l-2.52,0l-0.392-1.988s-0.812-0.224-1.932-0.224c-2.016,0-3.276,1.344-3.276,4.144c0,3.052,1.176,4.816,3.5,4.816c1.96,0,3.192-0.98,4.06-1.484z M197.1308,24.56c0-1.596,1.148-2.52,2.408-2.52c1.456,0,2.352,0.756,2.352,2.52c0,1.652-1.204,2.548-2.352,2.548c-1.512,0-2.408-0.896-2.408-2.548z M201.8348,41.36l1.96,0.7l0,2.24l-8.4,0l0-2.24l2.24-0.7l0-9.1l-2.24-0.7l0-2.24l6.44-0.14l0,12.18z M207.14108,29.32l5.964-0.14l0.252,1.568s1.904-1.848,4.144-1.848c3.892,0,5.824,2.884,5.824,7.42c0,5.18-2.464,8.26-7.364,8.26c-0.812,0-1.652-0.112-2.38-0.28l0,3.556l2.66,0.644l0,2.24l-9.044,0l0-2.24l2.184-0.644l0-15.596l-2.24-0.7l0-2.24z M213.58108,33.8l0,7.14c0.448,0.196,1.12,0.42,2.184,0.42c2.408,0,3.22-1.68,3.22-4.536c0-2.828-0.756-4.564-2.8-4.564c-1.82,0-2.604,1.54-2.604,1.54z M241.03536,37.664l-9.296,0c0.168,2.24,1.456,3.556,3.388,3.556c2.324,0,4.704-1.316,4.704-1.316l1.204,2.324s-2.8,2.352-6.384,2.352c-4.816,0-7.28-2.8-7.28-7.56c0-4.9,2.772-8.12,7.476-8.12c4.172,0,6.356,2.576,6.356,6.58c0,1.064-0.168,2.1-0.168,2.184z M231.79536,35.06l5.068,0c0-1.596-0.672-2.8-2.296-2.8c-1.568,0-2.548,1.148-2.772,2.8z M247.71364,39.4l0.224,1.82s0.98,0.28,2.352,0.28c1.54,0,2.296-0.476,2.296-1.372c0-2.296-7.476-1.456-7.476-6.44c0-3.5,2.8-4.788,5.768-4.788c2.52,0,5.208,0.84,5.208,0.84l-0.112,4.2l-2.38,0l-0.42-1.68s-0.812-0.28-1.932-0.28c-1.204,0-1.932,0.504-1.932,1.428c0,2.268,7.476,1.288,7.476,6.132c0,3.22-2.604,5.04-6.44,5.04c-2.66,0-5.152-0.616-5.152-0.616l0-4.564l2.52,0z"/></svg>
